<svg width="44" height="44" viewBox="0 0 44 44" fill="none" xmlns="http://www.w3.org/2000/svg">
<path fill-rule="evenodd" clip-rule="evenodd" d="M7.875 20.9044C7.875 14.4679 14.4927 9.25 22.6563 9.25C30.8198 9.25 37.4375 14.4679 37.4375 20.9044C37.4375 27.3411 30.8198 32.5589 22.6563 32.5589C21.7603 32.5589 20.8829 32.4962 20.0309 32.3755C19.178 32.9766 14.2503 36.438 13.7852 36.5029C13.7852 36.5029 13.5945 36.5771 13.4323 36.4816C13.2702 36.3861 13.2996 36.1357 13.2996 36.1357C13.3485 35.8024 14.577 31.5599 14.8034 30.779C10.6417 28.7172 7.875 25.0658 7.875 20.9044ZM13.6313 24.1585C13.6313 24.6076 14.0138 24.9729 14.4841 24.9729C14.9544 24.9729 15.3368 24.6076 15.3368 24.1585V19.0924H16.6674C17.1288 19.0924 17.5043 18.7177 17.5043 18.2574C17.5043 17.797 17.1289 17.4224 16.6674 17.4224H12.3007C11.8394 17.4224 11.4639 17.797 11.4639 18.2574C11.4639 18.7177 11.8392 19.0924 12.3007 19.0924H13.6313V24.1585ZM21.252 24.5852C21.334 24.8174 21.6061 24.9618 21.9617 24.9618C22.1487 24.9619 22.3336 24.9219 22.5038 24.8443C22.7388 24.7361 22.9648 24.4378 22.7053 23.6316L20.6663 18.265C20.5224 17.8559 20.0859 17.435 19.5289 17.4225C18.9735 17.4352 18.537 17.8559 18.3933 18.2642L16.3535 23.6332C16.0945 24.4375 16.3205 24.7357 16.5556 24.8441C16.7257 24.9218 16.9106 24.962 17.0977 24.9618C17.4533 24.9618 17.7251 24.8175 17.8069 24.5857L18.2294 23.4795L20.8298 23.4797L21.252 24.5852ZM19.5296 19.5494L20.3814 21.9692H18.6778L19.5296 19.5494ZM23.2604 24.0668C23.2604 24.4977 23.627 24.8485 24.0777 24.8485H26.8136C27.2643 24.8485 27.6309 24.4977 27.6309 24.0668C27.6309 23.6359 27.2643 23.2851 26.8136 23.2851H25.0015V18.2751C25.0015 17.8048 24.6109 17.4224 24.131 17.4224C23.651 17.4224 23.2604 17.8048 23.2604 18.2751V24.0668ZM27.9626 24.109C27.9626 24.5793 28.3451 24.9618 28.8153 24.9618C29.0415 24.9615 29.2583 24.8715 29.4183 24.7116C29.5782 24.5516 29.6681 24.3348 29.6684 24.1086V22.248L29.9643 21.9521L31.9642 24.6019C32.0434 24.7077 32.1462 24.7934 32.2645 24.8523C32.3828 24.9112 32.5133 24.9415 32.6454 24.9409C32.8306 24.9414 33.0109 24.8809 33.1583 24.7688C33.248 24.7016 33.3233 24.6173 33.3801 24.5207C33.4369 24.4242 33.474 24.3174 33.4892 24.2064C33.5051 24.0955 33.4988 23.9825 33.4707 23.8741C33.4426 23.7656 33.3933 23.6638 33.3255 23.5746L31.2264 20.7938L33.1697 18.8507C33.3033 18.717 33.3702 18.5327 33.3579 18.3316C33.3457 18.1321 33.2565 17.9401 33.1072 17.7909C32.947 17.6309 32.7332 17.5391 32.5203 17.5391C32.3378 17.5391 32.1697 17.6064 32.0473 17.7288L29.6681 20.108V18.2751C29.6681 17.8048 29.2857 17.4224 28.8153 17.4224C28.3451 17.4224 27.9626 17.8048 27.9626 18.2751V24.109Z" fill="#DEE1E3"/>
</svg>
