<?xml version="1.0" encoding="UTF-8" standalone="no"?>
<svg
   xmlns:dc="http://purl.org/dc/elements/1.1/"
   xmlns:cc="http://creativecommons.org/ns#"
   xmlns:rdf="http://www.w3.org/1999/02/22-rdf-syntax-ns#"
   xmlns:svg="http://www.w3.org/2000/svg"
   xmlns="http://www.w3.org/2000/svg"
   xmlns:sodipodi="http://sodipodi.sourceforge.net/DTD/sodipodi-0.dtd"
   xmlns:inkscape="http://www.inkscape.org/namespaces/inkscape"
   version="1.1"
   id="Capa_1"
   x="0px"
   y="0px"
   viewBox="0 0 512 512"
   style="enable-background:new 0 0 512 512;"
   xml:space="preserve"
   sodipodi:docname="icon-building.svg"
   inkscape:version="1.0.1 (3bc2e813f5, 2020-09-07)"><metadata
   id="metadata103"><rdf:RDF><cc:Work
       rdf:about=""><dc:format>image/svg+xml</dc:format><dc:type
         rdf:resource="http://purl.org/dc/dcmitype/StillImage" /><dc:title></dc:title></cc:Work></rdf:RDF></metadata><defs
   id="defs101" /><sodipodi:namedview
   pagecolor="#ffffff"
   bordercolor="#666666"
   borderopacity="1"
   objecttolerance="10"
   gridtolerance="10"
   guidetolerance="10"
   inkscape:pageopacity="0"
   inkscape:pageshadow="2"
   inkscape:window-width="1920"
   inkscape:window-height="1017"
   id="namedview99"
   showgrid="false"
   inkscape:zoom="1.1739077"
   inkscape:cx="117.52597"
   inkscape:cy="212.83602"
   inkscape:window-x="1912"
   inkscape:window-y="-8"
   inkscape:window-maximized="1"
   inkscape:current-layer="Capa_1" />
<g
   id="g6">
	<g
   id="g4">
		<path
   d="M284.471,57.633h-28.755c-5.107,0-9.262,4.155-9.262,9.263v34.505c-0.001,5.107,4.154,9.262,9.262,9.262h28.755    c5.107,0,9.263-4.155,9.263-9.263V66.896C293.734,61.789,289.579,57.633,284.471,57.633z M279.104,96.034h-18.022V72.262h18.022    V96.034z"
   id="path2" />
	</g>
</g>
<g
   id="g12">
	<g
   id="g10">
		<path
   d="M341.644,57.633h-28.755c-5.107,0-9.262,4.155-9.262,9.263v34.505c0,5.107,4.154,9.262,9.262,9.262h28.755    c5.107,0,9.262-4.155,9.262-9.263V66.896C350.906,61.789,346.751,57.633,341.644,57.633z M336.276,96.034h-18.021V72.262h18.021    V96.034z"
   id="path8" />
	</g>
</g>
<g
   id="g18">
	<g
   id="g16">
		<path
   d="M398.816,57.633h-28.755c-5.107,0-9.262,4.155-9.262,9.263v34.505c0,5.107,4.155,9.262,9.262,9.262h28.755    c5.107,0,9.263-4.155,9.263-9.263V66.896C408.079,61.789,403.924,57.633,398.816,57.633z M393.45,96.034h-18.022V72.262h18.022    V96.034z"
   id="path14" />
	</g>
</g>
<g
   id="g24">
	<g
   id="g22">
		<path
   d="M284.471,143.318h-28.755c-5.107,0-9.262,4.155-9.262,9.263v34.505c-0.001,5.108,4.154,9.263,9.262,9.263h28.755    c5.107,0,9.263-4.155,9.263-9.263v-34.505C293.734,147.474,289.579,143.318,284.471,143.318z M279.104,181.721h-18.022v-23.772    h18.022V181.721z"
   id="path20" />
	</g>
</g>
<g
   id="g30">
	<g
   id="g28">
		<path
   d="M341.644,143.318h-28.755c-5.107,0-9.262,4.155-9.262,9.263v34.505c0,5.108,4.154,9.263,9.262,9.263h28.755    c5.107,0,9.262-4.155,9.262-9.263v-34.505C350.906,147.474,346.751,143.318,341.644,143.318z M336.276,181.721h-18.021v-23.772    h18.021V181.721z"
   id="path26" />
	</g>
</g>
<g
   id="g36">
	<g
   id="g34">
		<path
   d="M398.816,143.318h-28.755c-5.107,0-9.262,4.155-9.262,9.263v34.505c0,5.108,4.155,9.263,9.262,9.263h28.755    c5.107,0,9.263-4.155,9.263-9.263v-34.505C408.079,147.474,403.924,143.318,398.816,143.318z M393.45,181.721h-18.022v-23.772    h18.022V181.721z"
   id="path32" />
	</g>
</g>
<g
   id="g42">
	<g
   id="g40">
		<path
   d="M284.471,229.005h-28.755c-5.107,0-9.262,4.155-9.262,9.263v34.505c-0.001,5.107,4.154,9.263,9.262,9.263h28.755    c5.107,0,9.263-4.155,9.263-9.263v-34.505C293.734,233.161,289.579,229.005,284.471,229.005z M279.104,267.407h-18.022v-23.772    h18.022V267.407z"
   id="path38" />
	</g>
</g>
<g
   id="g48">
	<g
   id="g46">
		<path
   d="M341.644,229.005h-28.755c-5.107,0-9.262,4.155-9.262,9.263v34.505c0,5.107,4.154,9.263,9.262,9.263h28.755    c5.107,0,9.262-4.155,9.262-9.263v-34.505C350.906,233.161,346.751,229.005,341.644,229.005z M336.276,267.407h-18.021v-23.772    h18.021V267.407z"
   id="path44" />
	</g>
</g>
<g
   id="g54">
	<g
   id="g52">
		<path
   d="M398.816,229.005h-28.755c-5.107,0-9.262,4.155-9.262,9.263v34.505c0,5.107,4.155,9.263,9.262,9.263h28.755    c5.107,0,9.263-4.155,9.263-9.263v-34.505C408.079,233.161,403.924,229.005,398.816,229.005z M393.45,267.407h-18.022v-23.772    h18.022V267.407z"
   id="path50" />
	</g>
</g>
<g
   id="g60">
	<g
   id="g58">
		<path
   d="M398.816,314.692h-28.755c-5.107,0-9.262,4.155-9.262,9.262v34.505c0,5.107,4.155,9.263,9.262,9.263h28.755    c5.107,0,9.263-4.155,9.263-9.263v-34.505C408.079,318.847,403.924,314.692,398.816,314.692z M393.45,353.092h-18.022v-23.771    h18.022V353.092z"
   id="path56" />
	</g>
</g>
<g
   id="g66">
	<g
   id="g64">
		<path
   d="M494.57,347.288c-9.373-13.776-28.25-17.423-42.069-8.136l-20.111,13.459V37.963h1.458c5.296,0,9.604-4.308,9.604-9.604    V9.604c0-5.296-4.308-9.604-9.604-9.604H387.14c-4.04,0-7.314,3.275-7.314,7.314s3.275,7.314,7.314,7.314h41.683v8.705h-205.37    v-8.705h117.884c4.04,0,7.314-3.275,7.314-7.314S345.376,0,341.336,0H218.428c-5.296,0-9.604,4.308-9.604,9.604v18.755    c0,5.296,4.308,9.604,9.604,9.604h3.714v93.951h-15.019V113.86c0-6.286-5.114-11.4-11.399-11.4h-55.228    c-6.286,0-11.4,5.114-11.4,11.4v18.053h-10.51c-6.532,0-11.846,5.314-11.846,11.846v167.745c-3.096-0.197-6.201-0.303-9.313-0.303    H85.899v-3.802c0-14.191-11.545-25.736-25.737-25.736H37.923c-14.191,0-25.737,11.545-25.737,25.736v104.45    c0,4.04,3.275,7.314,7.314,7.314s7.314-3.275,7.314-7.314v-104.45c0-6.124,4.983-11.107,11.108-11.107h22.239    c6.125,0,11.108,4.983,11.108,11.107v164.577c0,6.124-4.983,11.107-11.108,11.107H37.923c-6.125,0-11.108-4.983-11.108-11.107    v-14.351c0-4.04-3.275-7.314-7.314-7.314s-7.314,3.275-7.314,7.314v14.351c0,14.191,11.545,25.736,25.737,25.736h22.239    c14.191,0,25.737-11.546,25.737-25.736v-0.417l101.283,38.354c0.198,0.075,0.399,0.141,0.603,0.199    c4.45,1.257,8.898,1.888,13.306,1.888c2.396,0,4.78-0.187,7.146-0.56c0.002,0,0.007-0.001,0.014-0.002l149.501-21.55    c0.037-0.005,0.073-0.011,0.11-0.017c12.78-2.041,24.835-7.442,34.864-15.621c0.091-0.074,0.181-0.151,0.268-0.23l96.628-86.907    C501.01,377,503.137,359.88,494.57,347.288z M236.771,37.963h180.991v324.439l-60.858,40.729l-20.404-1.145l-0.52-5.224    c-0.381-3.837-1.241-7.528-2.521-11.011c-0.427-1.161-0.9-2.299-1.417-3.412c-0.777-1.669-1.653-3.281-2.622-4.829    c-2.291-3.657-5.101-6.952-8.331-9.788h20.556c5.107,0,9.262-4.155,9.262-9.263v-34.505c0-5.107-4.155-9.262-9.262-9.262H312.89    c-5.107,0-9.262,4.155-9.262,9.262v34.341c-1.848-0.51-3.745-0.909-5.686-1.184c-0.062-0.009-0.125-0.017-0.188-0.024l-4.02-0.463    v-32.671c0-5.107-4.155-9.263-9.263-9.263h-28.755c-5.107,0-9.262,4.155-9.262,9.263v27.228l-9.683-1.114V37.963z     M318.255,353.093v-23.771h18.021v23.771H318.255z M279.104,329.321v23.772h-16.057l-1.965-0.226v-23.546H279.104z     M143.725,117.089h48.769v14.824h-48.769V117.089z M121.367,146.542L121.367,146.542h100.775v22.874h-82.606    c-4.729,0-8.576,3.847-8.576,8.576v22.085c0,4.729,3.847,8.576,8.576,8.576h82.606v20.578h-82.606    c-4.729,0-8.576,3.847-8.576,8.576v22.084c0,4.729,3.847,8.576,8.576,8.576h82.606v20.578h-82.606    c-4.729,0-8.576,3.847-8.576,8.576v17.463c-1.242-0.289-2.489-0.559-3.741-0.817c-0.59-0.122-1.18-0.238-1.772-0.353    c-0.692-0.134-1.387-0.26-2.082-0.384c-0.666-0.12-1.33-0.248-1.998-0.358V146.542z M222.142,184.045v9.979h-76.553v-9.979    H222.142z M222.142,243.859v9.979h-76.553v-9.979H222.142z M145.589,313.653v-9.979h76.553v9.979H145.589z M222.142,328.282    v20.101l-2.253-0.26c-4.726-0.672-9.382-1.599-13.965-2.76c-8.885-2.251-17.487-5.407-25.732-9.46    c-1.096-0.539-2.183-1.097-3.266-1.668c-1.768-0.931-3.52-1.898-5.253-2.912c-1.276-0.747-2.564-1.465-3.857-2.171    c-0.28-0.153-0.56-0.304-0.841-0.454c-0.257-0.138-0.513-0.28-0.77-0.416H222.142z M479.875,376.205l-96.527,86.815    c-7.993,6.48-17.579,10.764-27.74,12.396l-149.502,21.55c-0.033,0.005-0.169,0.026-0.201,0.031    c-4.473,0.707-9.132,0.41-13.852-0.882L85.899,455.916V325.831h11.527c5.304,0,10.587,0.337,15.826,0.969    c1.064,0.128,2.124,0.269,3.182,0.422c0.154,0.022,0.307,0.046,0.46,0.069c2.673,0.396,5.322,0.877,7.949,1.429    c0.817,0.173,1.635,0.347,2.449,0.535c0.407,0.094,0.812,0.193,1.218,0.29c1.061,0.256,2.12,0.522,3.175,0.805    c0.19,0.051,0.381,0.1,0.571,0.152c8.264,2.253,16.31,5.308,24.014,9.129c0.23,0.114,0.459,0.23,0.688,0.346    c0.98,0.493,1.953,1.001,2.921,1.518c0.295,0.158,0.591,0.313,0.885,0.473c1.165,0.635,2.324,1.283,3.471,1.954    c0.017,0.01,0.034,0.019,0.051,0.029c3.109,1.818,6.269,3.517,9.478,5.094c13.904,6.834,28.716,11.391,44.167,13.577    c0.063,0.009,0.125,0.017,0.188,0.024l10.501,1.209l8.552,0.985l19.723,2.271l4.894,0.564c0.001,0,0.002,0,0.003,0l34.186,3.936    c13.624,1.968,24.081,12.894,25.444,26.6l0.254,2.549l-137.101-13.362c-4.033-0.393-7.598,2.55-7.99,6.571    c-0.391,4.021,2.55,7.598,6.571,7.99l145.342,14.166c0.305,0.057,0.615,0.102,0.932,0.119l29.097,1.633    c0.137,0.008,0.274,0.011,0.41,0.011c0.145,0,0.287-0.023,0.432-0.032c0.166-0.01,0.331-0.016,0.495-0.037    c0.21-0.027,0.416-0.073,0.623-0.118c0.162-0.035,0.325-0.063,0.483-0.109c0.22-0.064,0.433-0.15,0.646-0.235    c0.135-0.053,0.273-0.095,0.404-0.156c0.34-0.158,0.67-0.34,0.985-0.55l66.139-44.263l0.001-0.001l31.504-21.084    c7.173-4.82,16.965-2.929,21.826,4.216C486.919,362.049,485.816,370.929,479.875,376.205z"
   id="path62" />
	</g>
</g>
<g
   id="g68">
</g>
<g
   id="g70">
</g>
<g
   id="g72">
</g>
<g
   id="g74">
</g>
<g
   id="g76">
</g>
<g
   id="g78">
</g>
<g
   id="g80">
</g>
<g
   id="g82">
</g>
<g
   id="g84">
</g>
<g
   id="g86">
</g>
<g
   id="g88">
</g>
<g
   id="g90">
</g>
<g
   id="g92">
</g>
<g
   id="g94">
</g>
<g
   id="g96">
</g>
<path
   style="fill:#ffe4c4;stroke-width:0.602353"
   d="m 124.98824,313.59474 -3.31295,-0.69829 -0.15271,-82.96117 -0.15272,-82.96116 h 50.2986 50.2986 v 11.14353 11.14353 l -42.3153,9.6e-4 c -47.26728,0.001 -45.15846,-0.18529 -47.71598,4.21551 -1.13403,1.95136 -1.22519,3.12464 -1.22519,15.76805 0,12.857 0.073,13.75756 1.24192,15.32279 0.68306,0.91462 1.99033,2.22182 2.90505,2.90488 1.63818,1.2233 2.30393,1.24436 44.38631,1.40431 l 42.72319,0.16239 v 9.92702 9.92703 h -42.23328 c -41.75081,0 -42.25892,0.0144 -44.47779,1.26148 -4.32583,2.43125 -4.5454,3.33052 -4.5454,18.61616 0,12.47134 0.0961,13.71576 1.2047,15.59306 0.66259,1.12206 2.14919,2.54512 3.30355,3.16235 1.99027,1.06419 4.28813,1.12224 44.42353,1.12224 h 42.32469 v 9.91956 9.91956 l -42.72332,0.16985 c -42.07663,0.16728 -42.74848,0.18865 -44.38631,1.41178 -3.89705,2.91032 -4.12768,3.67547 -4.35934,14.46296 -0.23926,11.142 0.28323,10.28269 -5.50985,9.06162 z"
   id="path105" /><path
   style="fill:#afeeee;stroke-width:0.602353"
   d="m 346.35479,402.31009 c -4.63711,-0.28927 -8.7289,-0.64022 -9.09288,-0.7799 -0.36398,-0.13967 -0.83109,-2.25673 -1.038,-4.70458 -0.74051,-8.76022 -4.44666,-17.57347 -10.41237,-24.76072 l -3.34278,-4.02724 10.73738,-0.01 c 9.99191,-0.009 10.90234,-0.10334 13.11323,-1.35563 1.30672,-0.74015 2.93308,-2.29427 3.61412,-3.45362 1.18186,-2.01187 1.23827,-3.01345 1.23827,-21.98555 0,-18.79432 -0.0657,-19.98911 -1.2047,-21.92292 -0.66259,-1.1249 -1.97,-2.61572 -2.90535,-3.31294 -1.63987,-1.2224 -2.34321,-1.2677 -19.68289,-1.2677 -17.22245,0 -18.05253,0.0525 -19.64567,1.24193 -0.91488,0.68305 -2.22229,1.98995 -2.90534,2.90421 -1.18222,1.58238 -1.25037,2.56095 -1.41743,20.35593 l -0.1755,18.69364 -1.33038,-0.36301 c -0.73171,-0.19966 -2.73859,-0.53497 -4.45974,-0.74515 l -3.12936,-0.38213 -0.18358,-17.53977 c -0.17028,-16.26877 -0.27088,-17.68797 -1.38829,-19.58504 -0.66259,-1.1249 -1.97,-2.61572 -2.90535,-3.31294 -1.63987,-1.22237 -2.34321,-1.26767 -19.68289,-1.26767 -17.22245,0 -18.05253,0.0525 -19.64567,1.24193 -4.13504,3.08725 -4.12923,3.06093 -4.3273,19.58191 l -0.18003,15.01616 -1.32585,-0.005 c -0.72922,-0.003 -2.74891,-0.17598 -4.4882,-0.38489 l -3.16236,-0.37984 V 193.87375 37.948235 h 90.35294 90.35294 V 199.9501 361.95196 l -30.26823,20.30545 c -16.64753,11.168 -30.81035,20.36691 -31.47294,20.44203 -0.66259,0.0751 -4.9987,-0.10008 -9.6358,-0.38935 z m 56.8838,-35.45842 c 1.27859,-0.6523 2.89415,-2.10735 3.59012,-3.23346 1.22065,-1.97505 1.26541,-2.77147 1.26541,-22.51788 0,-28.53046 1.58958,-26.78743 -24.20178,-26.53799 -16.36796,0.1583 -17.36197,0.23226 -18.9369,1.409 -0.9142,0.68305 -2.22105,1.98996 -2.9041,2.90424 -1.18334,1.58388 -1.25053,2.56258 -1.42425,20.74395 -0.10028,10.49491 -0.0217,19.95461 0.17456,21.02156 0.44534,2.42078 2.98024,5.49571 5.39907,6.54929 1.37454,0.59871 5.97468,0.80605 18.27504,0.82369 15.1898,0.0218 16.61466,-0.0665 18.76283,-1.1624 z M 289.32161,280.99765 c 1.09958,-0.66259 2.59041,-2.15341 3.31294,-3.31294 1.28227,-2.05783 1.31369,-2.5933 1.31369,-22.39348 0,-19.63891 -0.0401,-20.33943 -1.2601,-21.98588 -0.69305,-0.93535 -2.15619,-2.31053 -3.25143,-3.05594 -1.95089,-1.32776 -2.34256,-1.35529 -19.28142,-1.35529 -16.93885,0 -17.33053,0.0275 -19.28142,1.35529 -1.09523,0.74541 -2.55838,2.12012 -3.25143,3.0549 -1.20931,1.63111 -1.26687,2.49286 -1.42837,21.38353 -0.16635,19.45757 -0.1525,19.7151 1.2047,22.39451 1.00437,1.98285 2.10074,3.08086 4.08358,4.08973 2.6581,1.35242 3.03136,1.37575 19.2753,1.2047 15.32034,-0.16133 16.71489,-0.26492 18.56396,-1.37913 z m 57.22352,0 c 1.09959,-0.66259 2.59042,-2.15341 3.31295,-3.31294 1.28088,-2.0556 1.31368,-2.60457 1.31368,-21.98589 0,-18.9669 -0.0567,-19.97415 -1.23727,-21.98383 -0.6805,-1.1584 -2.1602,-2.72815 -3.28822,-3.48832 -2.03978,-1.37461 -2.14785,-1.38119 -19.84508,-1.20676 -20.11368,0.19824 -19.88139,0.14537 -22.32663,5.08257 -1.18388,2.39037 -1.22959,3.34866 -1.06288,22.28706 l 0.1742,19.78928 1.44629,2.02784 c 2.90017,4.06631 4.33934,4.32666 22.94901,4.15156 15.33941,-0.14434 16.71259,-0.24498 18.56395,-1.36057 z m 57.03134,0.0997 c 0.99388,-0.60774 2.34918,-1.8275 3.01177,-2.71059 1.1425,-1.52273 1.21301,-2.6786 1.36561,-22.38681 0.15413,-19.90686 0.11002,-20.86377 -1.04861,-22.74433 -0.66524,-1.07973 -2.09294,-2.50178 -3.17268,-3.1601 -1.83677,-1.11989 -3.06245,-1.19709 -19.03917,-1.1992 -19.49337,-0.002 -20.13893,0.12629 -22.72311,4.53585 l -1.50862,2.57429 0.17387,20.19359 c 0.1974,22.92437 0.054,22.25265 5.32914,24.97198 2.6249,1.35313 2.98758,1.37584 19.24004,1.2047 14.81942,-0.15605 16.75509,-0.29085 18.37176,-1.27938 z M 289.43671,195.01176 c 1.09524,-0.74541 2.55838,-2.12058 3.25143,-3.05593 1.22007,-1.64663 1.2601,-2.34633 1.2601,-22.03002 v -20.32937 l -1.47835,-2.15751 c -2.98404,-4.35492 -3.11237,-4.38011 -22.3146,-4.38011 -17.08222,0 -17.17857,0.007 -19.497,1.44839 -4.38409,2.7253 -4.56883,3.74943 -4.58388,25.41217 -0.013,18.64832 0.0143,19.08193 1.35707,21.62125 2.48794,4.70477 3.06206,4.82643 22.77593,4.82643 16.88481,0 17.27876,-0.0278 19.2293,-1.3553 z m 57.24635,-0.002 c 1.10779,-0.74654 2.57093,-2.30513 3.25143,-3.46353 1.15875,-1.97252 1.24987,-3.23394 1.43577,-19.8756 0.23336,-20.88952 -0.0493,-23.00283 -3.49226,-26.11337 -3.02434,-2.73231 -4.91971,-2.95271 -23.20976,-2.69896 -16.38645,0.22734 -17.43453,0.4919 -20.01799,5.05296 -1.31389,2.31963 -1.34596,2.82799 -1.35564,21.48835 -0.0112,21.57567 0.19012,22.82028 4.12311,25.49282 l 2.17017,1.47467 h 17.54051 c 17.20053,0 17.57954,-0.0263 19.55466,-1.35734 z m 57.0495,0.15589 c 1.07974,-0.65833 2.50178,-2.08037 3.1601,-3.1601 1.131,-1.85499 1.19708,-3.06889 1.1992,-22.03099 0.002,-21.10583 -0.017,-21.26985 -2.8727,-24.33281 -2.42015,-2.59579 -5.8635,-3.01828 -22.72504,-2.78829 -16.67749,0.22748 -17.53227,0.40711 -20.28192,4.2622 -1.39188,1.95144 -1.40414,2.12235 -1.57639,21.97386 -0.25167,29.00467 -1.7542,27.27307 23.66537,27.27307 16.3703,0 17.59162,-0.0752 19.43138,-1.19694 z M 289.83939,109.2918 c 0.93469,-0.68199 2.31911,-2.44387 3.07649,-3.9153 1.3619,-2.64589 1.37515,-2.88736 1.2047,-21.950618 -0.19719,-22.054076 -0.24613,-22.283467 -5.30613,-24.870642 -2.64782,-1.353833 -3.00316,-1.375715 -19.56269,-1.204706 -16.32647,0.168601 -16.92594,0.217018 -18.74404,1.513883 -4.24363,3.027025 -4.14537,2.428038 -4.14537,25.269855 0,19.943988 0.0393,20.639088 1.26009,22.287058 0.69305,0.93556 2.17298,2.32222 3.28873,3.08145 2.0164,1.3721 2.13478,1.37937 19.62872,1.2047 16.665,-0.16638 17.69037,-0.24159 19.2995,-1.41568 z m 57.22353,-0.0277 c 0.93469,-0.69722 2.24155,-2.18804 2.90414,-3.31294 1.13905,-1.93381 1.2047,-3.1286 1.2047,-21.922921 0,-19.663574 -0.0148,-19.901513 -1.378,-22.093732 -0.82257,-1.32283 -2.44596,-2.733071 -4.02749,-3.498678 -2.54081,-1.22998 -3.33869,-1.274973 -19.45141,-1.096855 l -16.80193,0.185742 -2.27449,1.735874 c -3.95082,3.01523 -4.02113,3.48676 -3.8264,25.664351 0.16685,19.002079 0.22451,19.866559 1.43393,21.497819 0.69305,0.93478 2.17298,2.3208 3.28873,3.08003 2.0164,1.3721 2.13478,1.37937 19.62871,1.2047 16.80677,-0.16779 17.67669,-0.23285 19.29951,-1.44339 z m 56.20037,0.51379 c 1.15292,-0.57925 2.71151,-1.97421 3.46353,-3.0999 1.35379,-2.02651 1.3673,-2.24673 1.3673,-22.296456 0,-23.125446 -0.0231,-23.247613 -4.87514,-25.813448 -2.60598,-1.378072 -2.85891,-1.393796 -19.62071,-1.219719 -16.06287,0.166817 -17.07055,0.243478 -18.64286,1.418274 -0.91418,0.683058 -2.22102,1.989998 -2.90407,2.904312 -1.1867,1.588466 -1.24967,2.54714 -1.41613,21.559126 -0.166,18.960851 -0.11665,20.015601 1.04917,22.423871 0.75665,1.56303 2.087,3.0277 3.48714,3.83924 2.177,1.26179 2.91026,1.31258 19.12966,1.32499 14.8727,0.0114 17.11361,-0.11157 18.96211,-1.04028 z"
   id="path107" /></svg>
