<svg width="130" height="130" viewBox="0 0 130 130" fill="none" xmlns="http://www.w3.org/2000/svg">
<path d="M109.113 57.2578H103.917V119.608H109.113V57.2578Z" fill="#36414D"/>
<path d="M129.897 130H83.1338V114.412C83.1338 111.547 85.4647 109.217 88.3297 109.217H124.701C127.566 109.217 129.897 111.547 129.897 114.412V130ZM88.3291 124.804H124.701V114.412H88.3265L88.3291 124.804Z" fill="#36414D"/>
<path d="M88.3297 130H72.5348C69.8542 130 67.5795 127.908 67.3566 125.236L64.7228 93.6289H101.545L99.813 114.412H88.3265L88.3297 130ZM70.3696 98.8248L72.5348 124.804H83.1338V114.412C83.1338 111.547 85.4647 109.216 88.3297 109.216H95.0318L95.898 98.8248H70.3696Z" fill="#36414D"/>
<path d="M103.917 93.6289H62.3503V98.8248H103.917V93.6289Z" fill="#36414D"/>
<path d="M72.5348 130H0V41.6704H75.34V98.8249H70.3697L72.5348 124.804V124.804V130ZM5.19586 124.804H67.3207L64.7228 93.629H70.1442V46.8663H5.19586V124.804Z" fill="#36414D"/>
<path d="M72.7421 33.8764H2.5979V2.70117H51.9586L72.7421 31.2784V33.8764Z" fill="#FF6248"/>
<path d="M75.34 36.4746H0V0.103516H53.2815L75.34 30.4338V36.4746ZM5.19586 31.2787H69.5295L50.6358 5.29938H5.19586V31.2787Z" fill="#36414D"/>
<path d="M36.3712 2.70117H31.1753V33.8764H36.3712V2.70117Z" fill="#36414D"/>
<path d="M51.9587 2.70117H46.7628V33.8764H51.9587V2.70117Z" fill="#36414D"/>
<path d="M20.7835 2.70117H15.5876V33.8764H20.7835V2.70117Z" fill="#36414D"/>
<path d="M62.3503 15.6912H2.5979V20.887H62.3503V15.6912Z" fill="#36414D"/>
<path d="M106.515 36.5778L99.9317 24.8731L88.2264 18.2889L99.9312 11.7052L106.515 0L113.099 11.7047L124.804 18.2889L113.1 24.8726L106.515 36.5778ZM98.825 18.2889L103.747 21.0578L106.515 25.9793L109.284 21.0573L114.206 18.2889L109.284 15.52L106.515 10.5985L103.746 15.5206L98.825 18.2889Z" fill="#36414D"/>
<path d="M41.5669 88.433H0V57.2578H41.5669V88.433ZM5.19586 83.2371H36.371V62.4537H5.19586V83.2371Z" fill="#36414D"/>
<path d="M23.3814 59.856H18.1855V85.8353H23.3814V59.856Z" fill="black"/>
</svg>
