<?xml version="1.0" encoding="UTF-8" standalone="no"?>
<svg
   xmlns:dc="http://purl.org/dc/elements/1.1/"
   xmlns:cc="http://creativecommons.org/ns#"
   xmlns:rdf="http://www.w3.org/1999/02/22-rdf-syntax-ns#"
   xmlns:svg="http://www.w3.org/2000/svg"
   xmlns="http://www.w3.org/2000/svg"
   xmlns:sodipodi="http://sodipodi.sourceforge.net/DTD/sodipodi-0.dtd"
   xmlns:inkscape="http://www.inkscape.org/namespaces/inkscape"
   id="Layer_1"
   enable-background="new 0 0 512.004 512.004"
   height="512"
   viewBox="0 0 512.004 512.004"
   width="512"
   version="1.1"
   sodipodi:docname="prevention_icon.svg"
   inkscape:version="1.0.1 (3bc2e813f5, 2020-09-07)">
  <metadata
     id="metadata38">
    <rdf:RDF>
      <cc:Work
         rdf:about="">
        <dc:format>image/svg+xml</dc:format>
        <dc:type
           rdf:resource="http://purl.org/dc/dcmitype/StillImage" />
        <dc:title></dc:title>
      </cc:Work>
    </rdf:RDF>
  </metadata>
  <defs
     id="defs36" />
  <sodipodi:namedview
     pagecolor="#ffffff"
     bordercolor="#666666"
     borderopacity="1"
     objecttolerance="10"
     gridtolerance="10"
     guidetolerance="10"
     inkscape:pageopacity="0"
     inkscape:pageshadow="2"
     inkscape:window-width="1920"
     inkscape:window-height="1017"
     id="namedview34"
     showgrid="false"
     inkscape:zoom="1.3164062"
     inkscape:cx="267.20705"
     inkscape:cy="256.60292"
     inkscape:window-x="1912"
     inkscape:window-y="-8"
     inkscape:window-maximized="1"
     inkscape:current-layer="Layer_1" />
  <g
     id="g31">
    <path
       d="m359.017 452.019c-8.284 0-15 6.716-15 15v29.983c0 8.284 6.716 15 15 15s15-6.716 15-15v-29.983c0-8.285-6.716-15-15-15z"
       id="path25" />
    <path
       d="m93.982 452.019c-8.284 0-15 6.716-15 15v29.983c0 8.284 6.716 15 15 15s15-6.716 15-15v-29.983c0-8.285-6.715-15-15-15z"
       id="path27" />
    <path
       d="m481.999 261.583v-218.553l23.323-15.547c6.893-4.595 8.756-13.908 4.161-20.801-4.594-6.892-13.906-8.755-20.802-4.161l-30.003 20c-4.173 2.782-6.68 7.465-6.68 12.481v226.58c-17.457 6.193-29.998 22.866-29.998 42.42v77.8c-3.863-4.365-8.042-8.479-12.524-12.295-.105-.089-.212-.175-.317-.264v-9.064c0-17.257-6.199-34.019-17.457-47.198-8.471-9.917-19.396-17.338-31.519-21.572 3.947-13.162 6.077-27.127 6.077-41.593v-48.564c0-78.436-62.455-142.248-139.224-142.248-76.768 0-139.223 63.813-139.223 142.248v48.564c0 14.347 2.098 28.2 5.982 41.267-29.175 9.753-49.953 37.569-49.953 69.095v8.973c-26.795 22.621-43.842 56.408-43.842 94.1v33.696c0 8.284 6.716 15 15 15s15-6.716 15-15v-33.696c0-30.154 14.429-57.005 36.755-74.055 16.202-12.373 36.288-19.163 56.674-19.163h29.265c21.523 13.944 47.024 22.03 74.342 22.03s52.819-8.086 74.342-22.03h28.193c44.9 0 84.491 33.323 92.093 77.512.087.504.337 49.458.337 49.458 0 8.284 6.716 15 15 15h60c8.284 0 15-6.716 15-15v-193c-.001-19.555-12.543-36.228-30.002-42.42zm-104.129 88.361c-13.68-5.842-28.369-9.199-43.357-9.806 5.265-6.529 9.966-13.549 14.041-20.973 14.461 4.369 25.654 16.311 29.316 30.779zm-260.057-148.693c0-.293.009-.584.011-.876h218.425c.002.292.011.583.011.876 0 0-.136 54.893-.39 58.007h-63.21l-36.726-27.06c-5.291-3.899-12.504-3.899-17.795 0l-36.726 27.06h-63.209c-.255-3.114-.391-58.007-.391-58.007zm109.222-112.248c49.811 0 91.938 34.444 105.021 81.372h-210.04c13.082-46.928 55.209-81.372 105.019-81.372zm-121.664 229.893c4.101 7.51 8.842 14.607 14.159 21.204-15.706.489-30.683 3.918-44.392 9.759 3.74-14.794 15.305-26.844 30.233-30.963zm19.409-29.638h61.562c3.202 0 6.32-1.025 8.897-2.924l31.796-23.428 31.795 23.428c2.578 1.899 5.696 2.924 8.898 2.924h61.563c-15.57 42.493-55.53 72.806-102.256 72.806-46.725-.001-86.685-30.314-102.255-72.806zm357.22 124.745h-30v-110.001c0-8.271 6.729-15 14.999-15 8.271 0 15.001 6.729 15.001 15zm-30 68v-38h30v38z"
       id="path29" />
  </g>
  <path
     style="fill:#00ced1;stroke-width:0.759644"
     d="m 118.61221,256.18991 c -0.25898,-1.56676 -0.47462,-14.7276 -0.47922,-29.24629 l -0.008,-26.39763 h 109.0089 109.0089 l -0.002,9.30564 c -7.6e-4,5.1181 -0.22663,18.27893 -0.50173,29.24629 l -0.50021,19.94066 H 304.1509 273.16297 l -18.45692,-13.65039 c -10.1513,-7.50771 -19.65335,-14.23332 -21.11567,-14.9458 -2.77668,-1.35288 -8.11966,-1.74826 -11.4309,-0.84589 -1.06445,0.29008 -10.77583,7.03322 -21.58087,14.98475 l -19.6455,14.45733 h -30.92509 -30.92508 z"
     id="path40"
     transform="scale(1.0000078)" />
  <path
     style="fill:#00ced1;stroke-width:0.759644"
     d="m 452.38464,357.60237 c 0.0157,-53.07945 0.0989,-56.58449 1.41119,-59.47356 4.98374,-10.97168 19.91202,-11.49334 25.9752,-0.90769 l 1.84321,3.21805 0.21738,56.78338 0.21738,56.78338 h -14.84052 -14.84053 z"
     id="path42"
     transform="scale(1.0000078)" />
  <path
     style="fill:#00ced1;stroke-width:0.759644"
     d="m 452.36795,463.00297 v -18.61128 h 14.81306 14.81306 v 18.61128 18.61127 h -14.81306 -14.81306 z"
     id="path44"
     transform="scale(1.0000078)" />
</svg>
