<svg width="130" height="130" viewBox="0 0 130 130" fill="none" xmlns="http://www.w3.org/2000/svg">
<path d="M72.7999 20.8H31.2V0H72.7999V20.8ZM36.4 15.6H67.5999V5.2H36.4V15.6Z" fill="#36414D"/>
<path d="M118.776 92.7118L101.4 101.4L84.0237 92.7118C78.7384 90.0692 75.4 84.6674 75.4 78.7587V49.4H83.2C86.4734 49.4 89.556 47.8587 91.52 45.24L96.2 39H106.6L111.28 45.24C113.244 47.8587 116.327 49.4 119.6 49.4H127.4V78.7587C127.4 84.6674 124.062 90.0692 118.776 92.7118Z" fill="#FFC44D"/>
<path d="M101.4 104.307L82.861 95.0372C76.6553 91.9343 72.8 85.6969 72.8 78.7586V46.7999H83.2C85.642 46.7999 87.9752 45.6335 89.44 43.6799L94.9 36.3999H107.9L113.36 43.6799C114.825 45.6335 117.158 46.7999 119.6 46.7999H130V78.7586C130 85.6969 126.145 91.9343 119.94 95.0372L101.4 104.307ZM78 51.9999V78.7586C78 83.7142 80.7535 88.1701 85.1865 90.3863L101.4 98.4931L117.614 90.3863C122.047 88.1695 124.8 83.7142 124.8 78.7586V51.9999H119.6C115.529 51.9999 111.642 50.0561 109.2 46.7999L105.3 41.5999H97.5L93.6 46.7999C91.1581 50.0561 87.2706 51.9999 83.2 51.9999H78Z" fill="#36414D"/>
<path d="M104 130H0V10.3999H26V25.9999H78V10.3999H104V41.5999H97.5L93.6 46.7999C91.1576 50.0561 87.27 51.9999 83.2 51.9999H78V78.7586C78 83.7142 80.7534 88.1701 85.1864 90.3863L104 99.7931V130ZM5.2 124.8H98.8V103.007L82.861 95.0372C76.6553 91.9343 72.8 85.6969 72.8 78.7586V46.7999H83.2C85.6419 46.7999 87.9746 45.6335 89.44 43.6799L94.9 36.3999H98.8V15.5999H83.2V31.1999H20.8V15.5999H5.2V124.8Z" fill="#36414D"/>
<path d="M97.5002 80.3768L87.8615 70.7381L91.5389 67.0617L97.5002 73.023L111.261 59.2617L114.939 62.9381L97.5002 80.3768Z" fill="#36414D"/>
<path d="M23.4 60.8769L11.9231 49.4L23.4 37.9231L34.8769 49.4L23.4 60.8769ZM19.2769 49.4L23.4 53.5231L27.5231 49.4L23.4 45.2769L19.2769 49.4Z" fill="#36414D"/>
<path d="M65 46.8H41.6V52H65V46.8Z" fill="#36414D"/>
<path d="M23.4 89.477L11.9231 78.0001L23.4 66.5232L34.8769 78.0001L23.4 89.477ZM19.2769 78.0001L23.4 82.1232L27.5231 78.0001L23.4 73.877L19.2769 78.0001Z" fill="#36414D"/>
<path d="M65 75.3999H41.6V80.5999H65V75.3999Z" fill="#36414D"/>
<path d="M23.4 118.077L11.9231 106.6L23.4 95.123L34.8769 106.6L23.4 118.077ZM19.2769 106.6L23.4 110.723L27.5231 106.6L23.4 102.477L19.2769 106.6Z" fill="#36414D"/>
<path d="M65 104H41.6V109.2H65V104Z" fill="#36414D"/>
</svg>
