<?xml version="1.0" encoding="UTF-8" standalone="no"?>
<svg
   xmlns:dc="http://purl.org/dc/elements/1.1/"
   xmlns:cc="http://creativecommons.org/ns#"
   xmlns:rdf="http://www.w3.org/1999/02/22-rdf-syntax-ns#"
   xmlns:svg="http://www.w3.org/2000/svg"
   xmlns="http://www.w3.org/2000/svg"
   xmlns:xlink="http://www.w3.org/1999/xlink"
   xmlns:sodipodi="http://sodipodi.sourceforge.net/DTD/sodipodi-0.dtd"
   xmlns:inkscape="http://www.inkscape.org/namespaces/inkscape"
   id="_x31__x2C_5"
   enable-background="new 0 0 24 24"
   height="512"
   viewBox="0 0 24 24"
   width="512"
   version="1.1"
   sodipodi:docname="free-icon-home-3064184 - 복사본.svg"
   inkscape:version="1.0.1 (3bc2e813f5, 2020-09-07)">
  <metadata
     id="metadata13">
    <rdf:RDF>
      <cc:Work
         rdf:about="">
        <dc:format>image/svg+xml</dc:format>
        <dc:type
           rdf:resource="http://purl.org/dc/dcmitype/StillImage" />
      </cc:Work>
    </rdf:RDF>
  </metadata>
  <defs
     id="defs11" />
  <sodipodi:namedview
     pagecolor="#ffffff"
     bordercolor="#666666"
     borderopacity="1"
     objecttolerance="10"
     gridtolerance="10"
     guidetolerance="10"
     inkscape:pageopacity="0"
     inkscape:pageshadow="2"
     inkscape:window-width="1920"
     inkscape:window-height="1017"
     id="namedview9"
     showgrid="false"
     inkscape:zoom="1.1739077"
     inkscape:cx="119.27249"
     inkscape:cy="234.79227"
     inkscape:window-x="1912"
     inkscape:window-y="-8"
     inkscape:window-maximized="1"
     inkscape:current-layer="_x31__x2C_5" />
  <path
     d="m18.75 24h-13.5c-1.241 0-2.25-1.01-2.25-2.25v-8.25h-1.75c-.689 0-1.25-.561-1.25-1.25 0-.329.134-.652.367-.888l11.102-11.141c.281-.283.781-.283 1.063 0l11.1 11.14c.234.237.368.56.368.889 0 .689-.561 1.25-1.25 1.25h-1.75v8.25c0 1.24-1.009 2.25-2.25 2.25zm-16.901-12h1.901c.414 0 .75.336.75.75v9c0 .413.336.75.75.75h13.5c.414 0 .75-.337.75-.75v-9c0-.414.336-.75.75-.75h1.901l-10.151-10.187zm20.718.417h.01z"
     id="path2" />
  <path
     d="m14.75 20h-5.5c-.965 0-1.75-.785-1.75-1.75v-3.5c0-.965.785-1.75 1.75-1.75h5.5c.965 0 1.75.785 1.75 1.75v3.5c0 .965-.785 1.75-1.75 1.75zm-5.5-5.5c-.138 0-.25.112-.25.25v3.5c0 .138.112.25.25.25h5.5c.138 0 .25-.112.25-.25v-3.5c0-.138-.112-.25-.25-.25z"
     id="path4" />
  <path
     d="m13.75 14.5h-3.5c-.414 0-.75-.336-.75-.75v-2.25c0-1.379 1.122-2.5 2.5-2.5s2.5 1.121 2.5 2.5v2.25c0 .414-.336.75-.75.75zm-2.75-1.5h2v-1.5c0-.552-.449-1-1-1s-1 .448-1 1z"
     id="path6" />
  <path
     style="fill:#7fffd4;fill-opacity:0;stroke-width:0.602353"
     d="m 195.09492,393.63786 c -0.86532,-0.47029 -1.88775,-1.61419 -2.27205,-2.54199 -0.51121,-1.23416 -0.65478,-12.00558 -0.53493,-40.13318 l 0.16382,-38.44627 1.69006,-1.4535 1.69006,-1.45351 H 256 316.16811 l 1.69007,1.45351 1.69006,1.4535 0.16382,38.44627 c 0.12007,28.18006 -0.0232,38.89781 -0.53661,40.13726 -1.49041,3.59814 1.375,3.44345 -63.29613,3.41711 -49.96751,-0.0204 -59.4567,-0.15761 -60.7844,-0.8792 z"
     id="path15"
     transform="scale(0.046875)" />
  <path
     style="fill:#00ff7f;fill-opacity:0;stroke-width:0.602353"
     d="m 195.09492,393.63786 c -0.86532,-0.47029 -1.88775,-1.61419 -2.27205,-2.54199 -0.51121,-1.23416 -0.65478,-12.00558 -0.53493,-40.13318 l 0.16382,-38.44627 1.69006,-1.4535 1.69006,-1.45351 H 256 316.16811 l 1.69007,1.45351 1.69006,1.4535 0.16382,38.44627 c 0.12007,28.18006 -0.0232,38.89781 -0.53661,40.13726 -1.49041,3.59814 1.375,3.44345 -63.29613,3.41711 -49.96751,-0.0204 -59.4567,-0.15761 -60.7844,-0.8792 z"
     id="path17"
     transform="scale(0.046875)" />
  <use
     id="use19"
     inkscape:spray-origin="#path17"
     xlink:href="#path17"
     x="0"
     y="0"
     width="100%"
     height="100%"
     transform="translate(1.20019,0.24948659)" />
  <use
     id="use21"
     inkscape:spray-origin="#path17"
     xlink:href="#path17"
     x="0"
     y="0"
     width="100%"
     height="100%"
     transform="translate(-1.7187114,-0.13374223)" />
  <use
     id="use23"
     inkscape:spray-origin="#path17"
     xlink:href="#path17"
     x="0"
     y="0"
     width="100%"
     height="100%"
     transform="translate(-2.3031723,0.43537012)" />
  <use
     id="use25"
     inkscape:spray-origin="#path17"
     xlink:href="#path17"
     x="0"
     y="0"
     width="100%"
     height="100%"
     transform="translate(-1.6102387,0.96336356)" />
  <use
     id="use27"
     inkscape:spray-origin="#path17"
     xlink:href="#path17"
     x="0"
     y="0"
     width="100%"
     height="100%"
     transform="translate(-0.54599186,0.77384044)" />
  <use
     id="use29"
     inkscape:spray-origin="#path17"
     xlink:href="#path17"
     x="0"
     y="0"
     width="100%"
     height="100%"
     transform="translate(-0.14765457,-0.75245453)" />
  <use
     id="use31"
     inkscape:spray-origin="#path17"
     xlink:href="#path17"
     x="0"
     y="0"
     width="100%"
     height="100%"
     transform="translate(-0.35027666,0.1576642)" />
  <use
     id="use33"
     inkscape:spray-origin="#path17"
     xlink:href="#path17"
     x="0"
     y="0"
     width="100%"
     height="100%"
     transform="translate(-0.53372449,-0.17216087)" />
  <use
     id="use35"
     inkscape:spray-origin="#path17"
     xlink:href="#path17"
     x="0"
     y="0"
     width="100%"
     height="100%"
     transform="translate(-0.20538216,-0.30768942)" />
  <use
     id="use37"
     inkscape:spray-origin="#path17"
     xlink:href="#path17"
     x="0"
     y="0"
     width="100%"
     height="100%"
     transform="translate(-0.83702278,-0.71462771)" />
  <use
     id="use39"
     inkscape:spray-origin="#path17"
     xlink:href="#path17"
     x="0"
     y="0"
     width="100%"
     height="100%"
     transform="translate(-1.0388325,0.11113009)" />
  <use
     id="use41"
     inkscape:spray-origin="#path17"
     xlink:href="#path17"
     x="0"
     y="0"
     width="100%"
     height="100%"
     transform="translate(-0.91695978,-0.8348079)" />
  <use
     id="use43"
     inkscape:spray-origin="#path17"
     xlink:href="#path17"
     x="0"
     y="0"
     width="100%"
     height="100%"
     transform="translate(-1.1268879,0.31593652)" />
  <use
     id="use45"
     inkscape:spray-origin="#path17"
     xlink:href="#path17"
     x="0"
     y="0"
     width="100%"
     height="100%"
     transform="translate(0.07298152,-1.1390448)" />
  <use
     id="use908"
     inkscape:spray-origin="#path17"
     xlink:href="#path17"
     x="0"
     y="0"
     width="100%"
     height="100%"
     transform="translate(-0.49233203,-0.20154461)" />
  <use
     id="use910"
     inkscape:spray-origin="#path17"
     xlink:href="#path17"
     x="0"
     y="0"
     width="100%"
     height="100%"
     transform="translate(-1.9051058,0.76020254)" />
  <use
     id="use912"
     inkscape:spray-origin="#path17"
     xlink:href="#path17"
     x="0"
     y="0"
     width="100%"
     height="100%"
     transform="translate(1.0774484,-0.8676679)" />
  <use
     id="use914"
     inkscape:spray-origin="#path17"
     xlink:href="#path17"
     x="0"
     y="0"
     width="100%"
     height="100%"
     transform="translate(0.19611459,-0.32505966)" />
  <use
     id="use916"
     inkscape:spray-origin="#path17"
     xlink:href="#path17"
     x="0"
     y="0"
     width="100%"
     height="100%"
     transform="translate(-0.88231803,-0.35594008)" />
  <use
     id="use918"
     inkscape:spray-origin="#path17"
     xlink:href="#path17"
     x="0"
     y="0"
     width="100%"
     height="100%"
     transform="translate(-0.2577371,-0.46523725)" />
  <use
     id="use920"
     inkscape:spray-origin="#path17"
     xlink:href="#path17"
     x="0"
     y="0"
     width="100%"
     height="100%"
     transform="translate(-1.4749482,-0.64489524)" />
  <use
     id="use922"
     inkscape:spray-origin="#path17"
     xlink:href="#path17"
     x="0"
     y="0"
     width="100%"
     height="100%"
     transform="translate(-2.5605604,0.8903794)" />
  <use
     id="use924"
     inkscape:spray-origin="#path17"
     xlink:href="#path17"
     x="0"
     y="0"
     width="100%"
     height="100%"
     transform="translate(-3.4498055,-0.0108551)" />
  <use
     id="use926"
     inkscape:spray-origin="#path17"
     xlink:href="#path17"
     x="0"
     y="0"
     width="100%"
     height="100%"
     transform="translate(0.257121,-1.2660623)" />
  <use
     id="use928"
     inkscape:spray-origin="#path17"
     xlink:href="#path17"
     x="0"
     y="0"
     width="100%"
     height="100%"
     transform="translate(-0.74386106,-1.2267582)" />
  <use
     id="use930"
     inkscape:spray-origin="#path17"
     xlink:href="#path17"
     x="0"
     y="0"
     width="100%"
     height="100%"
     transform="translate(-0.22344441,-1.327522)" />
  <use
     id="use932"
     inkscape:spray-origin="#path17"
     xlink:href="#path17"
     x="0"
     y="0"
     width="100%"
     height="100%"
     transform="translate(-0.56558816,-0.60552115)" />
  <use
     id="use934"
     inkscape:spray-origin="#path17"
     xlink:href="#path17"
     x="0"
     y="0"
     width="100%"
     height="100%"
     transform="translate(-0.63874806,-0.95489721)" />
  <use
     id="use936"
     inkscape:spray-origin="#path17"
     xlink:href="#path17"
     x="0"
     y="0"
     width="100%"
     height="100%"
     transform="translate(-0.8919429,0.05637282)" />
  <use
     id="use938"
     inkscape:spray-origin="#path17"
     xlink:href="#path17"
     x="0"
     y="0"
     width="100%"
     height="100%"
     transform="translate(-1.2267248,0.82634586)" />
  <use
     id="use940"
     inkscape:spray-origin="#path17"
     xlink:href="#path17"
     x="0"
     y="0"
     width="100%"
     height="100%"
     transform="translate(-0.3008895,1.1209345)" />
  <use
     id="use942"
     inkscape:spray-origin="#path17"
     xlink:href="#path17"
     x="0"
     y="0"
     width="100%"
     height="100%"
     transform="translate(-0.20433955,0.28227729)" />
  <path
     style="fill:#00fa9a;fill-opacity:1;stroke-width:0.602353"
     d="m 195.09492,393.63786 c -0.86532,-0.47029 -1.88775,-1.61419 -2.27205,-2.54199 -0.51121,-1.23416 -0.65478,-12.00558 -0.53493,-40.13318 l 0.16382,-38.44627 1.69006,-1.4535 1.69006,-1.45351 H 256 316.16811 l 1.69007,1.45351 1.69006,1.4535 0.16382,38.44627 c 0.12007,28.18006 -0.0232,38.89781 -0.53661,40.13726 -1.49041,3.59814 1.375,3.44345 -63.29613,3.41711 -49.96751,-0.0204 -59.4567,-0.15761 -60.7844,-0.8792 z"
     id="path946"
     transform="scale(0.046875)" />
</svg>
