<svg width="130" height="130" viewBox="0 0 130 130" fill="none" xmlns="http://www.w3.org/2000/svg">
<path d="M23.3813 52.062C13.3538 52.062 5.1958 43.9039 5.1958 33.8764C5.1958 23.8489 13.3538 15.6909 23.3813 15.6909C33.4088 15.6909 41.5668 23.8489 41.5668 33.8764C41.5668 43.9039 33.4088 52.062 23.3813 52.062ZM23.3813 20.8868C16.2188 20.8868 10.3917 26.7139 10.3917 33.8764C10.3917 41.0389 16.2188 46.8661 23.3813 46.8661C30.5438 46.8661 36.371 41.0389 36.371 33.8764C36.371 26.7139 30.5438 20.8868 23.3813 20.8868Z" fill="black"/>
<path d="M106.515 52.062C96.4876 52.062 88.3296 43.9039 88.3296 33.8764C88.3296 23.8489 96.4876 15.6909 106.515 15.6909C116.543 15.6909 124.701 23.8489 124.701 33.8764C124.701 43.9039 116.543 52.062 106.515 52.062ZM106.515 20.8868C99.3526 20.8868 93.5255 26.7139 93.5255 33.8764C93.5255 41.0389 99.3526 46.8661 106.515 46.8661C113.678 46.8661 119.505 41.0389 119.505 33.8764C119.505 26.7139 113.678 20.8868 106.515 20.8868Z" fill="black"/>
<path d="M93.5256 130H36.3711V96.227C36.3711 89.0645 42.1983 83.2373 49.3608 83.2373H58.6255L64.9483 93.7756L71.2712 83.2373H80.5359C87.6984 83.2373 93.5256 89.0645 93.5256 96.227V130ZM41.567 124.804H88.3297V96.227C88.3297 91.9295 84.8334 88.4332 80.5359 88.4332H74.2131L64.9483 103.874L55.6836 88.4332H49.3608C45.0633 88.4332 41.567 91.9295 41.567 96.227V124.804Z" fill="black"/>
<path d="M67.5462 98.8247H62.3503V127.402H67.5462V98.8247Z" fill="black"/>
<path d="M41.5669 104.021H0V70.2475C0 63.085 5.82716 57.2578 12.9897 57.2578H17.0585L23.3814 67.7961L29.7042 57.2578H33.7731C40.9356 57.2578 46.7628 63.085 46.7628 70.2475V88.7338L45.4669 89.4846C43.0612 90.8782 41.5669 93.4616 41.5669 96.2268V104.021ZM5.19586 98.8247H36.371V96.2268C36.371 92.1345 38.3294 88.2834 41.5669 85.847V70.2475C41.5669 65.95 38.0706 62.4537 33.7731 62.4537H32.6461L23.3814 77.8947L14.1166 62.4537H12.9897C8.69216 62.4537 5.19586 65.95 5.19586 70.2475V98.8247Z" fill="black"/>
<path d="M129.897 104.021H88.3297V96.2268C88.3297 93.4616 86.8353 90.8782 84.4296 89.4846L83.1338 88.7338V70.2475C83.1338 63.085 88.961 57.2578 96.1234 57.2578H100.192L106.515 67.7961L112.838 57.2578H116.907C124.069 57.2578 129.897 63.085 129.897 70.2475V104.021ZM93.5255 98.8247H124.701V70.2475C124.701 65.95 121.204 62.4537 116.907 62.4537H115.78L106.515 77.8947L97.2504 62.4537H96.1234C91.8259 62.4537 88.3297 65.95 88.3297 70.2475V85.847C91.5672 88.2834 93.5255 92.1345 93.5255 96.2268V98.8247Z" fill="black"/>
<path d="M64.9483 80.6392C76.4266 80.6392 85.7317 71.3341 85.7317 59.8557C85.7317 48.3773 76.4266 39.0723 64.9483 39.0723C53.4699 39.0723 44.1648 48.3773 44.1648 59.8557C44.1648 71.3341 53.4699 80.6392 64.9483 80.6392Z" fill="#64B5F6"/>
<path d="M64.9483 83.2371C52.0558 83.2371 41.5669 72.7482 41.5669 59.8558C41.5669 46.9633 52.0558 36.4744 64.9483 36.4744C77.8408 36.4744 88.3297 46.9633 88.3297 59.8558C88.3297 72.7482 77.8408 83.2371 64.9483 83.2371ZM64.9483 41.6702C54.9208 41.6702 46.7628 49.8283 46.7628 59.8558C46.7628 69.8833 54.9208 78.0413 64.9483 78.0413C74.9758 78.0413 83.1338 69.8833 83.1338 59.8558C83.1338 49.8283 74.9758 41.6702 64.9483 41.6702Z" fill="black"/>
<path d="M62.3505 68.7257L55.3179 61.6931L58.9914 58.0186L62.3505 61.3777L70.9055 52.8228L74.5789 56.4973L62.3505 68.7257Z" fill="black"/>
<path d="M64.9483 36.5778L58.3641 24.8731L46.6599 18.2889L58.3641 11.7052L64.9483 0L71.5325 11.7047L83.2367 18.2889L71.5325 24.8726L64.9483 36.5778ZM57.2574 18.2889L62.18 21.0578L64.9483 25.9793L67.7167 21.0573L72.6392 18.2884L67.7167 15.5195L64.9483 10.5985L62.18 15.5206L57.2574 18.2889Z" fill="black"/>
<path d="M64.9487 109.648L48.7246 99.9145L54.7419 84.8704L59.5668 86.8001L55.1924 97.7353L64.9487 103.589L74.7039 97.7353L70.3295 86.8001L75.1544 84.8704L81.1717 99.9145L64.9487 109.648Z" fill="black"/>
</svg>
