<svg width="341" height="63" viewBox="0 0 341 63" fill="none" xmlns="http://www.w3.org/2000/svg">
<path d="M237.229 19.9999C237.221 19.7323 237.267 19.4658 237.364 19.2161C237.461 18.9665 237.607 18.7389 237.794 18.5468C237.98 18.3547 238.203 18.202 238.45 18.0977C238.697 17.9935 238.962 17.9398 239.229 17.9399H248.059C248.327 17.9398 248.592 17.9935 248.839 18.0977C249.086 18.202 249.309 18.3547 249.495 18.5468C249.682 18.7389 249.828 18.9665 249.925 19.2161C250.022 19.4658 250.067 19.7323 250.059 19.9999V59.2199C250.045 59.7516 249.832 60.2585 249.461 60.64C249.091 61.0216 248.59 61.25 248.059 61.2799H239.229C238.698 61.25 238.198 61.0216 237.828 60.64C237.457 60.2585 237.244 59.7516 237.229 59.2199V19.9999Z" fill="#0f4876"/>
<path d="M63.5898 2.99994C63.6041 2.4683 63.8176 1.96141 64.188 1.57983C64.5585 1.19825 65.0588 0.969855 65.5898 0.939941H74.5298C75.0608 0.969855 75.5612 1.19825 75.9317 1.57983C76.3021 1.96141 76.5156 2.4683 76.5298 2.99994V59.3099C76.5156 59.8416 76.3021 60.3485 75.9317 60.73C75.5612 61.1116 75.0608 61.34 74.5298 61.3699H65.6098C65.0789 61.34 64.5785 61.1116 64.208 60.73C63.8376 60.3485 63.6241 59.8416 63.6098 59.3099L63.5898 2.99994Z" fill="#0f4876"/>
<path d="M31.0595 0C40.0595 0 47.0595 3.71 52.6395 10.54C52.8837 10.8541 53.0594 11.2158 53.1554 11.6019C53.2513 11.988 53.2654 12.3899 53.1966 12.7818C53.1278 13.1737 52.9778 13.5468 52.7561 13.8771C52.5345 14.2075 52.2461 14.4878 51.9095 14.7L46.8095 19.59C45.4995 20.78 44.3995 20.16 43.1695 19.15C41.3795 17.37 37.4495 13.45 31.1695 13.45C20.6595 13.45 14.2295 22.55 14.2295 31.18C14.2295 38.76 19.6595 48.74 30.6495 49.1C37.3595 49.1 41.2395 44.19 43.7695 41.6C44.2072 41.0757 44.8278 40.7374 45.5056 40.6538C46.1835 40.5703 46.8677 40.7477 47.4195 41.15L52.9295 45.73C54.3895 46.92 54.9295 48.41 53.9295 49.89C48.9295 57.76 41.2495 62.36 30.9295 62.36C26.8493 62.3509 22.8109 61.5363 19.0462 59.963C15.2814 58.3898 11.8642 56.0888 8.99066 53.192C6.1171 50.2952 3.84368 46.8596 2.30077 43.0823C0.75787 39.305 -0.0241557 35.2602 -0.000453481 31.18C0.0721039 22.9537 3.36403 15.0831 9.16989 9.25482C14.9758 3.42653 22.8336 0.104278 31.0595 0V0Z" fill="#0f4876"/>
<path d="M107.849 16.8698C110.49 16.841 113.109 17.3437 115.551 18.3482C117.993 19.3526 120.208 20.8382 122.064 22.7165C123.92 24.5948 125.378 26.8273 126.354 29.2812C127.329 31.735 127.8 34.36 127.739 36.9998C127.724 37.9763 127.654 38.9512 127.529 39.9198C127.476 40.417 127.244 40.8779 126.876 41.2164C126.508 41.555 126.029 41.7481 125.529 41.7598H98.2794C98.4809 44.3286 99.6443 46.7267 101.537 48.4749C103.43 50.2231 105.913 51.1927 108.489 51.1898C111.468 51.153 114.363 50.2075 116.789 48.4798C117.849 47.8298 118.789 47.6098 119.549 48.4798L123.919 53.5698C124.124 53.7466 124.285 53.967 124.393 54.2148C124.5 54.4626 124.551 54.7314 124.54 55.0013C124.53 55.2712 124.458 55.5352 124.332 55.7738C124.205 56.0125 124.027 56.2196 123.809 56.3798C119.5 60.3537 113.82 62.5042 107.959 62.3798C95.1894 62.3798 86.1494 52.0898 86.1494 39.6398C86.1494 27.3798 95.1894 16.8698 107.849 16.8698ZM115.299 34.1998C115.142 32.23 114.261 30.3882 112.826 29.0292C111.392 27.6702 109.505 26.8904 107.529 26.8398C105.491 26.8551 103.527 27.6095 102.002 28.9631C100.478 30.3166 99.496 32.1773 99.2394 34.1998H115.299Z" fill="#0f4876"/>
<path d="M182.089 20.0001C182.081 19.7324 182.127 19.4659 182.224 19.2163C182.321 18.9667 182.467 18.7391 182.653 18.5469C182.84 18.3548 183.063 18.2021 183.31 18.0979C183.556 17.9936 183.822 17.94 184.089 17.9401H188.089C188.491 17.9339 188.883 18.0569 189.209 18.291C189.535 18.5251 189.777 18.8579 189.899 19.2401L191.389 23.2401C193.331 21.2201 195.66 19.6129 198.237 18.5149C200.815 17.4169 203.588 16.8506 206.389 16.8501C219.899 16.8501 225.319 27.1401 225.319 38.4001V59.2001C225.307 59.7325 225.095 60.2407 224.724 60.6227C224.353 61.0048 223.851 61.2325 223.319 61.2601H214.599C214.332 61.2602 214.066 61.2066 213.82 61.1023C213.573 60.9981 213.35 60.8454 213.163 60.6533C212.977 60.4611 212.831 60.2335 212.734 59.9839C212.637 59.7343 212.591 59.4677 212.599 59.2001V37.7701C212.599 32.1401 209.729 28.5701 204.599 28.5701C202.439 28.5658 200.328 29.2148 198.543 30.4319C196.759 31.6491 195.384 33.3774 194.599 35.3901V59.2201C194.599 60.7401 193.959 61.2801 191.939 61.2801H184.069C183.538 61.2502 183.038 61.0218 182.668 60.6402C182.297 60.2586 182.084 59.7517 182.069 59.2201L182.089 20.0001Z" fill="#0f4876"/>
<path d="M281.439 16.8702C284.079 16.8427 286.698 17.3464 289.139 18.3514C291.58 19.3563 293.795 20.842 295.65 22.72C297.506 24.5979 298.965 26.8299 299.941 29.2832C300.916 31.7364 301.388 34.3608 301.329 37.0002C301.309 37.9765 301.239 38.951 301.119 39.9202C301.062 40.4158 300.828 40.8742 300.461 41.212C300.094 41.5498 299.618 41.7443 299.119 41.7602H271.859C272.061 44.3289 273.224 46.7271 275.117 48.4753C277.01 50.2235 279.493 51.1931 282.069 51.1902C285.048 51.1547 287.944 50.209 290.369 48.4802C291.429 47.8302 292.369 47.6102 293.139 48.4802L297.499 53.5702C297.703 53.747 297.865 53.9674 297.973 54.2152C298.08 54.463 298.13 54.7318 298.12 55.0017C298.109 55.2715 298.038 55.5356 297.912 55.7742C297.785 56.0128 297.607 56.22 297.389 56.3802C293.081 60.3559 287.4 62.5066 281.539 62.3802C268.779 62.3802 259.739 52.0902 259.739 39.6402C259.739 27.3802 268.779 16.8702 281.439 16.8702ZM288.879 34.2002C288.722 32.2321 287.843 30.3916 286.41 29.0329C284.977 27.6741 283.093 26.8932 281.119 26.8402C279.079 26.8531 277.113 27.6064 275.586 28.9602C274.059 30.3139 273.076 32.176 272.819 34.2002H288.879Z" fill="#0f4876"/>
<path d="M310.26 19.9999C310.252 19.7322 310.297 19.4657 310.394 19.2161C310.491 18.9664 310.637 18.7388 310.824 18.5467C311.01 18.3546 311.234 18.2019 311.48 18.0976C311.727 17.9934 311.992 17.9397 312.26 17.9399H316.26C316.689 17.9379 317.107 18.0739 317.452 18.3278C317.798 18.5817 318.053 18.94 318.18 19.3499L319.67 23.5799C321.16 21.4099 325.09 16.8599 331.67 16.8599C336.67 16.8599 341.13 18.4899 339.86 21.1899L335.92 28.1899C335.723 28.6441 335.357 29.0032 334.899 29.1902C334.441 29.3771 333.928 29.377 333.47 29.1899C332.479 28.8293 331.442 28.6105 330.39 28.5399C328.86 28.5499 327.361 28.9687 326.047 29.7528C324.734 30.537 323.654 31.6581 322.92 32.9999V59.2199C322.92 60.7399 321.92 61.2799 320.47 61.2799H312.28C311.749 61.2499 311.248 61.0215 310.878 60.64C310.507 60.2584 310.294 59.7515 310.28 59.2199L310.26 19.9999Z" fill="#0f4876"/>
<path d="M150.61 33.8801C153.244 33.8956 155.861 34.2965 158.38 35.0701C158.48 29.5401 153.83 27.5901 149.89 27.5901C145.95 27.5901 143.49 29.7401 140.89 30.7201C139.44 31.2801 138.66 30.1801 138.44 28.7701L137.49 23.1401C137.17 21.5201 138.15 21.0201 138.98 20.4301C142.917 18.1021 147.406 16.8728 151.98 16.8701C162.82 16.8701 169.83 23.8701 169.83 35.7201V59.2201C169.818 59.7525 169.605 60.2607 169.234 60.6427C168.863 61.0248 168.361 61.2525 167.83 61.2801H164C163.26 61.2801 162.73 60.9501 162.19 59.7601L160.92 56.8401C158.47 59.1101 154.54 62.3601 147.92 62.3601C139.41 62.3601 133.56 56.7301 133.56 47.5201C133.59 39.8301 139.76 33.8801 150.61 33.8801ZM148.05 52.3501C151.05 54.0201 154.73 53.1001 156.71 49.3501C157.637 47.3607 158.125 45.1949 158.14 43.0001V43.0001C156.196 42.0167 154.057 41.4803 151.88 41.4301C147.72 41.5701 145.29 44.5201 145.39 47.9901C145.48 48.936 145.785 49.8489 146.28 50.6601C146.724 51.3582 147.332 51.9381 148.05 52.3501V52.3501Z" fill="#0f4876"/>
<path d="M249.699 12.9201C250.086 10.4471 249.936 7.91992 249.259 5.51006C247.729 1.00006 243.819 -0.699936 240.199 0.580064C239.232 1.00553 238.376 1.64897 237.699 2.46006C237.097 3.19788 236.678 4.06856 236.479 5.00006C235.709 8.86006 237.909 12.6001 242.479 13.5301C244.899 13.888 247.368 13.6896 249.699 12.9501V12.9201Z" fill="#0f4876"/>
</svg>
