<svg width="118" height="114" viewBox="0 0 118 114" fill="none" xmlns="http://www.w3.org/2000/svg">
<rect width="118" height="114" fill="white"/>
<rect width="118" height="114" fill="white"/>
<path fill-rule="evenodd" clip-rule="evenodd" d="M80.77 76C87.2912 77.0669 93.9823 76.1796 100 73.45V73.4502C101.519 72.7789 102.998 72.021 104.43 71.1802C105.006 70.8433 105.569 70.4948 106.085 70.1759C107.359 69.3876 108.34 68.7808 108.49 68.9802L108.53 69.0002C108.75 69.2802 106.12 71.7902 105.75 72.1302C103.926 73.73 102.006 75.2161 100 76.5802V76.56C99 77.26 98 77.94 97 78.61C91.1848 82.4929 84.8439 85.5236 78.17 87.61C71.8103 89.5728 65.1307 90.2859 58.5 89.71C53.9697 89.3294 49.5369 88.1832 45.39 86.32C41.0357 84.332 37.2172 81.3361 34.25 77.58C30.8184 73.1374 28.3494 68.029 27 62.58C25.32 56.52 24.8033 49.3967 25.45 41.21C25.8074 37.0398 26.4423 32.8992 27.35 28.8156C27.7171 27.164 29.4139 26.1984 31.0393 26.6681L49.3955 31.9731C50.6636 32.3396 51.537 33.4921 51.595 34.8108C51.721 37.6707 52.0097 40.5217 52.46 43.35C53.2928 48.9432 55.0715 54.3538 57.72 59.35C60.1457 63.8728 63.632 67.74 67.88 70.62C72.12 73.49 75.16 75.16 80.77 76ZM100 78.1402V97C100 98.6569 98.6569 100 97 100H18C16.3431 100 15 98.6569 15 97V18C15 16.3431 16.3431 15 18 15H97C98.6569 15 100 16.3431 100 18V72.2002C101.491 71.5097 102.943 70.7385 104.35 69.8902C105.385 69.2421 106.453 68.648 107.55 68.1102C108.5 67.7302 109.58 67.3602 109.88 67.7302C110.18 68.1002 109.8 69.3902 108.8 70.5802C108.059 71.4523 107.253 72.2679 106.39 73.0202C104.648 74.5763 102.331 76.3527 100.143 78.0307L100 78.1402Z" fill="#0F4876"/>
</svg>
