<svg width="156" height="30" viewBox="0 0 156 30" fill="none" xmlns="http://www.w3.org/2000/svg">
<path d="M0 16.6502C0 14.0791 0.553719 11.7923 1.66116 9.78986C2.7686 7.76267 4.30671 6.19283 6.27549 5.08035C8.26888 3.94314 10.5207 3.37454 13.0309 3.37454C16.1071 3.37454 18.7403 4.19036 20.9306 5.822C23.1209 7.45365 24.5851 9.67862 25.3234 12.4969H18.3835C17.8667 11.4091 17.1284 10.581 16.1686 10.0124C15.2334 9.44376 14.1629 9.15946 12.957 9.15946C11.0129 9.15946 9.43784 9.83931 8.23196 11.199C7.02608 12.5587 6.42314 14.3758 6.42314 16.6502C6.42314 18.9246 7.02608 20.7417 8.23196 22.1014C9.43784 23.4611 11.0129 24.1409 12.957 24.1409C14.1629 24.1409 15.2334 23.8566 16.1686 23.288C17.1284 22.7194 17.8667 21.8912 18.3835 20.8035H25.3234C24.5851 23.6218 23.1209 25.8467 20.9306 27.4784C18.7403 29.0853 16.1071 29.8888 13.0309 29.8888C10.5207 29.8888 8.26888 29.3325 6.27549 28.22C4.30671 27.0828 2.7686 25.513 1.66116 23.5105C0.553719 21.508 0 19.2213 0 16.6502Z" fill="white"/>
<path d="M35.0503 2.26205V29.7033H28.7379V2.26205H35.0503Z" fill="white"/>
<path d="M58.5907 19.0235C58.5907 19.6168 58.5538 20.2349 58.48 20.8776H44.194C44.2925 22.1632 44.6985 23.152 45.4122 23.8442C46.1505 24.5117 47.0488 24.8455 48.107 24.8455C49.682 24.8455 50.7771 24.178 51.3924 22.843H58.1109C57.7663 24.2027 57.1388 25.4264 56.2282 26.5142C55.3423 27.602 54.2225 28.4549 52.869 29.0729C51.5154 29.691 50.0019 30 48.3285 30C46.3105 30 44.514 29.5674 42.9389 28.7021C41.3639 27.8368 40.1334 26.6007 39.2475 24.9938C38.3615 23.3869 37.9186 21.508 37.9186 19.3572C37.9186 17.2064 38.3492 15.3276 39.2106 13.7206C40.0965 12.1137 41.327 10.8776 42.902 10.0124C44.4771 9.14709 46.2859 8.71446 48.3285 8.71446C50.3219 8.71446 52.0938 9.13473 53.6442 9.97528C55.1946 10.8158 56.4005 12.0148 57.2618 13.5723C58.1478 15.1298 58.5907 16.9468 58.5907 19.0235ZM52.1307 17.3548C52.1307 16.267 51.7615 15.4017 51.0232 14.759C50.2849 14.1162 49.3621 13.7948 48.2547 13.7948C47.1964 13.7948 46.2982 14.1038 45.5599 14.7219C44.8462 15.3399 44.4032 16.2176 44.231 17.3548H52.1307Z" fill="white"/>
<path d="M60.2146 19.3201C60.2146 17.1941 60.6083 15.3276 61.3958 13.7206C62.208 12.1137 63.3031 10.8776 64.6812 10.0124C66.0594 9.14709 67.5975 8.71446 69.2956 8.71446C70.7475 8.71446 72.0149 9.01112 73.0978 9.60445C74.2052 10.1978 75.0542 10.9765 75.6449 11.9407V9.01112H81.9573V29.7033H75.6449V26.7738C75.0296 27.7379 74.1683 28.5167 73.0609 29.11C71.978 29.7033 70.7106 30 69.2587 30C67.5852 30 66.0594 29.5674 64.6812 28.7021C63.3031 27.8121 62.208 26.5637 61.3958 24.9567C60.6083 23.3251 60.2146 21.4462 60.2146 19.3201ZM75.6449 19.3572C75.6449 17.775 75.2019 16.5266 74.316 15.6119C73.4546 14.6972 72.3964 14.2398 71.1413 14.2398C69.8862 14.2398 68.8157 14.6972 67.9297 15.6119C67.0684 16.5019 66.6377 17.7379 66.6377 19.3201C66.6377 20.9023 67.0684 22.1632 67.9297 23.1026C68.8157 24.0173 69.8862 24.4747 71.1413 24.4747C72.3964 24.4747 73.4546 24.0173 74.316 23.1026C75.2019 22.1879 75.6449 20.9394 75.6449 19.3572Z" fill="white"/>
<path d="M98.6238 8.78863C101.036 8.78863 102.955 9.57973 104.382 11.1619C105.834 12.7194 106.56 14.8702 106.56 17.6143V29.7033H100.285V18.4672C100.285 17.0828 99.9281 16.0074 99.2144 15.241C98.5008 14.4747 97.541 14.0915 96.3351 14.0915C95.1292 14.0915 94.1694 14.4747 93.4558 15.241C92.7421 16.0074 92.3852 17.0828 92.3852 18.4672V29.7033H86.0728V9.01112H92.3852V11.7553C93.0251 10.8405 93.8864 10.1236 94.9693 9.60445C96.0521 9.06057 97.2703 8.78863 98.6238 8.78863Z" fill="white"/>
<path d="M113.67 6.86032C112.563 6.86032 111.652 6.53894 110.939 5.89617C110.25 5.22868 109.905 4.41286 109.905 3.4487C109.905 2.45983 110.25 1.64401 110.939 1.00124C111.652 0.333745 112.563 0 113.67 0C114.753 0 115.639 0.333745 116.328 1.00124C117.042 1.64401 117.399 2.45983 117.399 3.4487C117.399 4.41286 117.042 5.22868 116.328 5.89617C115.639 6.53894 114.753 6.86032 113.67 6.86032ZM116.808 9.01112V29.7033H110.496V9.01112H116.808Z" fill="white"/>
<path d="M140.349 19.0235C140.349 19.6168 140.312 20.2349 140.238 20.8776H125.952C126.05 22.1632 126.456 23.152 127.17 23.8442C127.908 24.5117 128.807 24.8455 129.865 24.8455C131.44 24.8455 132.535 24.178 133.15 22.843H139.869C139.524 24.2027 138.897 25.4264 137.986 26.5142C137.1 27.602 135.98 28.4549 134.627 29.0729C133.273 29.691 131.76 30 130.086 30C128.068 30 126.272 29.5674 124.697 28.7021C123.122 27.8368 121.891 26.6007 121.005 24.9938C120.119 23.3869 119.676 21.508 119.676 19.3572C119.676 17.2064 120.107 15.3276 120.968 13.7206C121.854 12.1137 123.085 10.8776 124.66 10.0124C126.235 9.14709 128.044 8.71446 130.086 8.71446C132.08 8.71446 133.852 9.13473 135.402 9.97528C136.952 10.8158 138.158 12.0148 139.02 13.5723C139.906 15.1298 140.349 16.9468 140.349 19.0235ZM133.889 17.3548C133.889 16.267 133.519 15.4017 132.781 14.759C132.043 14.1162 131.12 13.7948 130.013 13.7948C128.954 13.7948 128.056 14.1038 127.318 14.7219C126.604 15.3399 126.161 16.2176 125.989 17.3548H133.889Z" fill="white"/>
<path d="M149.54 12.4598C150.278 11.3226 151.201 10.4326 152.309 9.78986C153.416 9.12237 154.646 8.78863 156 8.78863V15.5006H154.265C152.69 15.5006 151.509 15.8467 150.721 16.5389C149.934 17.2064 149.54 18.3931 149.54 20.0989V29.7033H143.228V9.01112H149.54V12.4598Z" fill="white"/>
</svg>
